<?xml version="1.0" standalone="no"?>
<!DOCTYPE svg PUBLIC "-//W3C//DTD SVG 20010904//EN"
 "http://www.w3.org/TR/2001/REC-SVG-20010904/DTD/svg10.dtd">
<svg version="1.0" xmlns="http://www.w3.org/2000/svg"
 width="16.000000pt" height="16.000000pt" viewBox="0 0 16.000000 16.000000"
 preserveAspectRatio="xMidYMid meet">
<metadata>
Created by potrace 1.11, written by Peter Selinger 2001-2013
</metadata>
<g transform="translate(0.000000,16.000000) scale(0.001867,-0.001867)"
fill="#000000" stroke="none">
<path d="M6319 8153 c-25 -7 -53 -21 -61 -31 -8 -9 -68 -96 -133 -192 -66 -96
-122 -176 -127 -178 -4 -2 -8 -10 -8 -19 0 -8 -8 -22 -19 -31 -10 -10 -61 -80
-113 -157 -210 -312 -731 -1071 -744 -1084 -11 -13 -14 -12 -20 2 -10 27 -95
83 -147 97 -58 16 -130 8 -193 -20 l-47 -20 -54 26 c-83 41 -165 26 -247 -46
l-34 -30 -50 33 c-59 40 -157 67 -245 67 l-65 0 -32 80 c-62 153 -170 209
-319 164 l-54 -16 -29 36 c-36 44 -95 63 -149 47 -50 -15 -122 -73 -160 -128
l-32 -47 -16 25 c-34 55 -131 138 -186 158 -72 27 -111 26 -168 -3 l-47 -23
-83 41 -82 41 -115 0 c-92 -1 -126 -5 -172 -22 l-56 -21 -12 28 c-29 70 -114
116 -197 105 -95 -12 -187 -87 -266 -219 -19 -31 -36 -53 -40 -50 -11 12 -96
5 -124 -10 -45 -22 -102 -91 -134 -160 -54 -116 -59 -260 -15 -388 l24 -67
-69 -11 c-47 -8 -81 -21 -109 -41 -43 -31 -79 -95 -80 -139 0 -20 -9 -29 -45
-43 -114 -47 -185 -151 -185 -272 l0 -70 -56 -29 c-57 -30 -109 -87 -120 -132
-4 -17 -16 -24 -45 -29 -58 -10 -101 -44 -131 -104 -26 -50 -28 -64 -27 -160
0 -58 4 -128 8 -155 9 -55 12 -51 -79 -119 -70 -52 -104 -115 -108 -203 -5
-85 10 -133 75 -241 24 -39 43 -74 43 -78 0 -3 -16 -28 -35 -56 -38 -56 -50
-102 -41 -153 6 -30 1 -42 -41 -98 -168 -222 -268 -596 -267 -1003 2 -552 186
-993 580 -1389 201 -202 503 -425 754 -559 47 -25 114 -61 150 -81 65 -34 380
-173 415 -182 6 -1 51 -17 100 -34 50 -18 111 -39 138 -46 26 -8 71 -21 100
-29 28 -9 68 -18 87 -21 19 -2 37 -8 40 -12 3 -4 23 -8 45 -10 22 -2 42 -7 45
-11 3 -3 15 -6 28 -5 12 1 22 -2 22 -6 0 -4 12 -5 26 -2 18 3 25 1 20 -6 -4
-7 3 -9 20 -6 15 3 34 2 43 -2 17 -7 40 -11 109 -15 23 -2 42 -5 42 -9 0 -3
15 -6 33 -6 17 -1 64 -4 102 -8 39 -4 89 -7 113 -7 27 1 41 -3 37 -9 -4 -7 2
-7 18 -1 14 6 27 8 30 5 3 -3 16 -6 29 -8 13 -1 30 -6 37 -11 10 -5 12 -4 7 3
-10 16 7 15 23 -1 8 -7 11 -7 8 -1 -8 14 100 13 122 0 10 -7 12 -6 6 4 -6 9 1
12 28 8 20 -2 33 0 31 4 -3 4 20 7 50 6 34 -2 52 -6 49 -13 -3 -5 0 -4 8 3 7
6 17 12 22 12 4 0 5 -6 1 -12 -4 -7 2 -5 13 5 11 10 33 17 49 16 16 -1 44 1
62 5 22 5 38 3 49 -6 9 -7 14 -8 10 -2 -8 14 14 20 65 20 20 -1 34 2 32 6 -3
4 4 7 13 7 38 1 100 8 109 14 10 6 73 18 119 22 17 2 30 4 30 5 0 2 33 8 63
12 6 1 12 4 12 8 0 4 6 7 13 8 11 0 43 8 72 16 6 2 23 8 38 15 16 6 33 9 38 5
5 -3 9 -1 9 4 0 5 6 9 13 10 22 2 42 7 55 16 7 4 16 5 19 2 4 -3 15 2 26 11
10 10 20 17 21 15 0 -2 14 1 29 7 16 6 33 8 39 5 7 -5 8 -2 3 6 -6 10 -3 12
13 8 14 -4 20 -2 15 5 -4 6 2 8 15 5 14 -4 20 -2 15 5 -4 7 0 8 11 4 10 -4 15
-3 11 3 -3 6 0 11 7 12 7 0 18 2 24 2 6 1 23 9 38 19 15 10 36 19 47 20 10 1
19 5 19 10 0 4 5 5 10 2 6 -3 10 -1 10 6 0 7 3 10 6 6 4 -3 13 1 21 9 8 8 19
12 24 9 5 -4 9 -1 9 5 0 6 5 8 10 5 6 -3 10 -3 10 2 0 12 49 32 70 28 14 -3
17 1 13 12 -4 11 -2 14 5 9 7 -4 12 -2 12 4 0 7 7 9 16 6 8 -3 13 -2 10 2 -2
4 35 30 85 57 49 28 89 53 89 58 0 4 5 7 10 7 9 0 96 54 126 79 5 4 21 14 35
21 13 7 40 26 59 42 19 16 40 32 45 36 40 30 182 139 191 147 6 6 46 41 90 79
110 96 335 326 403 411 31 38 62 77 70 85 8 8 51 65 96 125 531 715 692 1500
459 2228 -44 138 -134 328 -209 443 -31 47 -55 88 -53 90 3 3 147 73 513 249
176 85 474 230 740 360 121 59 288 140 372 180 183 88 189 95 172 191 -22 130
-89 269 -160 328 -83 70 -157 83 -239 41 -27 -14 -61 -26 -74 -27 -14 -1 -22
-7 -19 -12 4 -5 -1 -7 -11 -3 -10 4 -15 3 -11 -3 7 -12 -72 -53 -86 -45 -5 4
-8 1 -7 -6 2 -7 -1 -13 -7 -14 -5 0 -21 -8 -35 -16 -32 -21 -164 -95 -260
-146 -204 -110 -356 -192 -580 -313 -135 -73 -279 -150 -320 -173 -41 -22
-124 -66 -183 -98 -59 -33 -110 -59 -113 -59 -4 0 -14 10 -24 23 -10 13 -35
32 -55 42 -26 14 -44 35 -61 72 -14 29 -40 63 -57 75 -44 31 -114 31 -156 0
-31 -22 -31 -22 -68 -4 -21 11 -54 24 -73 31 l-35 11 3 70 c6 129 -45 221
-153 274 -56 27 -57 28 -52 63 13 80 -27 172 -94 212 l-27 16 319 445 c314
437 442 617 506 709 18 25 47 57 64 71 16 14 31 33 32 42 2 9 8 22 14 29 6 8
21 32 33 54 20 36 75 113 166 233 49 65 51 91 14 160 -78 148 -241 240 -361
205z"/>
</g>
</svg>
